<svg width="29" height="29" viewBox="0 0 29 29" fill="none" xmlns="http://www.w3.org/2000/svg">
<path d="M28 13.1875V25H25.4V21.0625H4.6V25H2V4H4.6V17.125H15V7.9375H22.8C24.1791 7.9375 25.5018 8.49062 26.477 9.47519C27.4521 10.4598 28 11.7951 28 13.1875ZM9.8 15.8125C8.76566 15.8125 7.77368 15.3977 7.04228 14.6592C6.31089 13.9208 5.9 12.9193 5.9 11.875C5.9 10.8307 6.31089 9.82919 7.04228 9.09077C7.77368 8.35234 8.76566 7.9375 9.8 7.9375C10.8343 7.9375 11.8263 8.35234 12.5577 9.09077C13.2891 9.82919 13.7 10.8307 13.7 11.875C13.7 12.9193 13.2891 13.9208 12.5577 14.6592C11.8263 15.3977 10.8343 15.8125 9.8 15.8125Z" fill="black"/>
</svg>
