<svg width="29" height="29" viewBox="0 0 29 29" fill="none" xmlns="http://www.w3.org/2000/svg">
<path d="M27.0588 4.98638C26.96 4.90597 26.8434 4.85018 26.7188 4.82357C26.5942 4.79696 26.465 4.8003 26.3419 4.83332L18.6005 7.24999L10.843 3.31082C10.737 3.26175 10.6215 3.23633 10.5047 3.23633C10.3878 3.23633 10.2724 3.26175 10.1663 3.31082L2.11078 6.60554C1.9624 6.6665 1.8356 6.77036 1.74662 6.90384C1.65764 7.03731 1.61053 7.1943 1.61134 7.35471V23.8525C1.612 23.9844 1.64505 24.1142 1.70759 24.2304C1.77014 24.3465 1.86026 24.4456 1.97004 24.5187C2.07982 24.5919 2.2059 24.637 2.33719 24.6501C2.46848 24.6631 2.60096 24.6437 2.723 24.5936L10.4724 21.4117L18.1977 25.375C18.3124 25.4337 18.4395 25.4641 18.5683 25.4636C18.6484 25.4758 18.7299 25.4758 18.8099 25.4636L26.8655 22.9503C27.0352 22.8971 27.1826 22.7892 27.2846 22.6435C27.3866 22.4978 27.4375 22.3224 27.4294 22.1447V5.63888C27.4252 5.50821 27.3893 5.38053 27.3247 5.26685C27.2602 5.15317 27.1689 5.05691 27.0588 4.98638ZM25.778 21.5486L19.0758 23.643V21.7983H17.7869V23.4094L11.0202 19.9375V18.5761H9.73134V19.9617L3.22245 22.6442V7.88638L9.73134 5.20388V7.09693H11.0202V5.21193L17.7869 8.67582V10.3675H19.0758V8.8611L25.778 6.73443V21.5486Z" fill="black"/>
<path d="M17.7866 12.1317H19.0755V15.2009H17.7866V12.1317Z" fill="black"/>
<path d="M17.7866 16.965H19.0755V20.0341H17.7866V16.965Z" fill="black"/>
<path d="M9.73096 8.90942H11.0198V11.9786H9.73096V8.90942Z" fill="black"/>
<path d="M9.73096 13.7992H11.0198V16.82H9.73096V13.7992Z" fill="black"/>
</svg>
