<svg width="29" height="29" viewBox="0 0 29 29" fill="none" xmlns="http://www.w3.org/2000/svg">
<path d="M16.2093 6.45326L15.6655 6.99888L20.3057 7.39899L23.097 4.59817C23.532 4.16168 24.3296 3.50694 25.4896 2.77945C26.6496 2.05196 27.4109 1.83372 27.7009 2.12471C28.4985 2.92495 27.7009 4.48905 25.3083 6.85338L22.5532 9.61783L22.952 14.2737L23.4958 13.7645C23.9308 13.2916 24.4021 13.2916 24.7646 13.6554C25.1996 14.0919 25.0183 14.7102 24.1483 15.5832L23.2783 16.4926L23.7133 19.6208L24.3296 18.966C24.7283 18.5295 25.1633 18.5295 25.5621 18.8933C25.9971 19.3298 25.9246 19.8754 25.3446 20.4574L24.0395 21.7669C24.5471 25.2588 24.6196 27.223 24.2208 27.6231C24.0395 27.7686 23.7858 27.9141 23.4233 27.9869C23.097 28.0233 22.807 27.9869 22.6257 27.8414C22.4807 27.6595 22.2632 27.0048 22.0457 25.8772C21.792 24.7132 21.1757 22.749 20.0882 19.9845C19.0369 17.1837 18.2756 15.6196 17.9131 15.2195C17.7681 15.074 17.5506 15.074 17.2968 15.2195C17.043 15.3286 16.1368 16.0925 14.6867 17.5111C13.2367 18.966 11.8954 20.13 10.6266 21.0394C10.5903 21.2576 10.6991 21.9851 10.8803 23.1855C11.0616 24.3858 11.1341 25.1861 11.0978 25.477C11.0253 25.768 10.7353 26.1682 10.2641 26.641C10.0103 26.8956 9.82904 27.0411 9.64778 27.0775C9.17651 26.6047 8.45149 25.0769 7.4727 22.5671C4.75386 21.3667 3.26755 20.6029 2.97754 20.3119C2.97754 20.1664 3.12255 19.9481 3.37631 19.6935C3.84757 19.2207 4.24634 18.9297 4.5726 18.8933C4.86261 18.8205 5.62389 18.9297 6.82018 19.1479C8.01647 19.3298 8.7415 19.4025 8.99526 19.4025C9.86529 18.0931 11.4966 16.1652 14.0342 13.619C14.7592 12.8188 14.9767 12.3095 14.723 12.0549C14.3605 11.6548 12.7654 10.9273 10.0103 9.87245C7.21894 8.81759 5.29763 8.12648 4.13758 7.90823C2.97754 7.65361 2.32502 7.47174 2.18001 7.28987C1.99876 7.14437 1.96251 6.85338 2.03501 6.48963C2.07126 6.12589 2.21627 5.87127 2.39752 5.6894C2.76004 5.32566 4.71761 5.36203 8.23398 5.87127L9.50278 4.56179C10.0828 4.01618 10.6266 3.94343 11.0616 4.37992C11.4603 4.74367 11.4241 5.18016 11.0253 5.58028L10.3728 6.19864L13.4904 6.63513L14.3605 5.79852C15.2305 4.92554 15.8468 4.74367 16.2818 5.18016C16.6805 5.58028 16.6443 5.98039 16.2093 6.45326Z" fill="black"/>
</svg>
