<svg width="57" height="32" viewBox="0 0 57 32" fill="none" xmlns="http://www.w3.org/2000/svg">
<g clip-path="url(#clip0_108_3)">
<path d="M3.76702 28.7257C3.16495 28.7257 2.61881 28.5896 2.12856 28.3176C1.63831 28.0371 1.24698 27.6544 0.954549 27.1698C0.670722 26.6766 0.528809 26.1154 0.528809 25.4863C0.528809 24.8146 0.670722 24.211 0.954549 23.6753C1.23838 23.1397 1.62541 22.7188 2.11566 22.4127C2.60591 22.0981 3.15637 21.9408 3.76702 21.9408C4.36908 21.9408 4.91523 22.0854 5.40548 22.3744C5.89572 22.655 6.28705 23.0376 6.57949 23.5223C6.87192 24.0069 7.01813 24.5595 7.01813 25.1802C7.01813 25.8349 6.87192 26.4343 6.57949 26.9785C6.29566 27.5142 5.90862 27.9392 5.41838 28.2539C4.92813 28.5685 4.37767 28.7257 3.76702 28.7257ZM3.87023 28.2156C4.32606 28.2156 4.6873 28.0881 4.95393 27.833C5.22057 27.5779 5.40977 27.2463 5.52159 26.8382C5.64199 26.4301 5.7022 26.0006 5.7022 25.5501C5.7022 25.1675 5.6635 24.7935 5.58609 24.4278C5.51729 24.0538 5.40548 23.7178 5.25066 23.4202C5.09585 23.1142 4.89372 22.8718 4.6443 22.6933C4.40347 22.5147 4.11106 22.4255 3.76702 22.4255C3.31977 22.4255 2.95424 22.553 2.67041 22.8081C2.38659 23.0631 2.17587 23.3947 2.03825 23.8029C1.90924 24.211 1.84473 24.6488 1.84473 25.1165C1.84473 25.6435 1.91784 26.1453 2.06406 26.6214C2.21027 27.0891 2.4339 27.4717 2.73492 27.7692C3.03594 28.0667 3.41439 28.2156 3.87023 28.2156ZM10.1784 28.5217V28.1391C10.4451 28.1391 10.63 28.0753 10.7332 27.9478C10.8364 27.8117 10.8966 27.6289 10.9138 27.3994C10.931 27.1612 10.9396 26.8892 10.9396 26.5831L10.9525 23.6753C10.9525 23.5392 10.9525 23.4033 10.9525 23.2672C10.9611 23.1312 10.9783 22.9909 11.0041 22.8463C10.8493 22.8548 10.6945 22.8633 10.5397 22.8718C10.3934 22.8803 10.2429 22.8888 10.0881 22.8973V22.3617C10.4666 22.3617 10.7504 22.3447 10.9396 22.3107C11.1374 22.2767 11.2836 22.2342 11.3783 22.1831C11.4729 22.1321 11.5503 22.0769 11.6105 22.0173H11.9846C11.9932 22.0769 11.9975 22.1449 11.9975 22.2214C12.0061 22.2979 12.0147 22.383 12.0233 22.4765C12.0319 22.57 12.0362 22.6763 12.0362 22.7953C12.2254 22.6338 12.4318 22.4892 12.6555 22.3617C12.8877 22.2342 13.1285 22.1321 13.3779 22.0556C13.636 21.9791 13.8897 21.9408 14.1391 21.9408C14.8874 21.9408 15.4335 22.1746 15.7776 22.6423C16.1216 23.1014 16.2936 23.8198 16.2936 24.7976V27.1698C16.2936 27.3398 16.2893 27.4928 16.2807 27.6289C16.2807 27.7565 16.2678 27.8926 16.242 28.0371C16.3796 28.0285 16.5129 28.0243 16.642 28.0243C16.7796 28.0157 16.9172 28.0074 17.0548 27.9988V28.5217H14.4229V28.1391C14.6896 28.1391 14.8745 28.0753 14.9777 27.9478C15.0809 27.8117 15.1411 27.6289 15.1583 27.3994C15.1755 27.1612 15.1841 26.8892 15.1841 26.5831V24.7976C15.1755 24.0665 15.0508 23.5137 14.81 23.1397C14.5778 22.7656 14.2079 22.5827 13.7005 22.5913C13.3908 22.5998 13.0855 22.6805 12.7845 22.8336C12.4921 22.9866 12.2469 23.1822 12.0491 23.4202C12.0577 23.4882 12.062 23.5647 12.062 23.6498C12.062 23.7349 12.062 23.8242 12.062 23.9176L12.0491 27.1698C12.0491 27.3398 12.0448 27.4928 12.0362 27.6289C12.0362 27.7565 12.0233 27.8926 11.9975 28.0371C12.1351 28.0285 12.2684 28.0243 12.3975 28.0243C12.5351 28.0157 12.6727 28.0074 12.8103 27.9988V28.5217H10.1784ZM27.9578 28.7257C27.76 28.7257 27.5578 28.6961 27.3514 28.6365C27.145 28.5855 26.9515 28.4793 26.7709 28.3176C26.5989 28.156 26.4612 27.9223 26.358 27.6162C26.2548 27.3015 26.2032 26.8892 26.2032 26.3791L26.229 22.6805L25.2356 22.6933V22.1449C25.4594 22.1364 25.6872 22.0556 25.9194 21.9026C26.1516 21.741 26.358 21.5242 26.5386 21.2521C26.7279 20.9801 26.8569 20.6825 26.9257 20.3594H27.3643V22.1449H29.5317V22.6423L27.3643 22.6678L27.3385 26.2133C27.3385 26.5959 27.3688 26.9233 27.4288 27.1953C27.4978 27.459 27.6052 27.6586 27.7514 27.7947C27.8977 27.9309 28.0868 27.9988 28.319 27.9988C28.5599 27.9988 28.7835 27.9309 28.9899 27.7947C29.205 27.6586 29.3943 27.4717 29.5575 27.2336L29.9059 27.5142C29.7168 27.7947 29.5275 28.0157 29.3382 28.1773C29.1576 28.339 28.9814 28.4579 28.8093 28.5344C28.6373 28.6195 28.4783 28.6706 28.3319 28.6875C28.1858 28.713 28.061 28.7257 27.9578 28.7257ZM35.7853 28.7257C35.1832 28.7257 34.6371 28.5896 34.1469 28.3176C33.6566 28.0371 33.2651 27.6544 32.9728 27.1698C32.689 26.6766 32.5471 26.1154 32.5471 25.4863C32.5471 24.8146 32.689 24.211 32.9728 23.6753C33.2567 23.1397 33.6437 22.7188 34.1339 22.4127C34.6242 22.0981 35.1745 21.9408 35.7853 21.9408C36.3872 21.9408 36.9335 22.0854 37.4238 22.3744C37.914 22.655 38.3053 23.0376 38.5978 23.5223C38.89 24.0069 39.0364 24.5595 39.0364 25.1802C39.0364 25.8349 38.89 26.4343 38.5978 26.9785C38.3139 27.5142 37.9269 27.9392 37.4367 28.2539C36.9464 28.5685 36.3959 28.7257 35.7853 28.7257ZM35.8885 28.2156C36.3443 28.2156 36.7055 28.0881 36.9722 27.833C37.2387 27.5779 37.428 27.2463 37.5399 26.8382C37.6602 26.4301 37.7205 26.0006 37.7205 25.5501C37.7205 25.1675 37.6818 24.7935 37.6044 24.4278C37.5354 24.0538 37.4238 23.7178 37.269 23.4202C37.1141 23.1142 36.9119 22.8718 36.6626 22.6933C36.4217 22.5147 36.1292 22.4255 35.7853 22.4255C35.338 22.4255 34.9725 22.553 34.6887 22.8081C34.4049 23.0631 34.194 23.3947 34.0565 23.8029C33.9275 24.211 33.863 24.6488 33.863 25.1165C33.863 25.6435 33.936 26.1453 34.0823 26.6214C34.2285 27.0891 34.452 27.4717 34.7532 27.7692C35.0542 28.0667 35.4325 28.2156 35.8885 28.2156ZM44.9189 28.7257C44.4545 28.7257 44.063 28.6406 43.7449 28.4707C43.4353 28.3007 43.1986 28.0115 43.0353 27.6034C42.8805 27.1953 42.8031 26.6427 42.8031 25.9455V23.6753C42.8031 23.5392 42.8031 23.4033 42.8031 23.2672C42.8116 23.1312 42.8289 22.9909 42.8547 22.8463C42.7083 22.8548 42.558 22.8633 42.4032 22.8718C42.2568 22.8718 42.1107 22.8761 41.9645 22.8846V22.3617H42.3645C42.7341 22.3617 43.0009 22.3277 43.1643 22.2597C43.3363 22.1831 43.4695 22.1024 43.5643 22.0173H43.9384V25.9072C43.9384 26.6383 44.0416 27.1867 44.248 27.5524C44.4629 27.9095 44.8242 28.0839 45.3318 28.0753C45.6585 28.0667 45.9681 27.9691 46.2606 27.782C46.5616 27.5865 46.8025 27.3569 46.9831 27.0933V23.8156C46.9831 23.6115 46.9873 23.4372 46.996 23.2927C47.0045 23.1397 47.0218 22.9909 47.0476 22.8463C46.8928 22.8548 46.738 22.8633 46.5832 22.8718C46.4284 22.8718 46.2735 22.8761 46.1187 22.8846V22.3617H46.5187C46.8883 22.3617 47.1551 22.3277 47.3185 22.2597C47.4905 22.1831 47.6237 22.1024 47.7185 22.0173H48.0926L48.0797 26.8382C48.0797 26.9743 48.0753 27.1656 48.0668 27.4121C48.0581 27.6586 48.0452 27.8671 48.0281 28.0371C48.1829 28.0285 48.3377 28.0201 48.4926 28.0115C48.6474 28.003 48.8022 27.9946 48.957 27.986V28.5217H47.1121C47.0863 28.3772 47.0647 28.2411 47.0476 28.1136C47.0389 27.986 47.0303 27.8671 47.0218 27.7565C46.7551 28.0201 46.4326 28.2497 46.0542 28.4452C45.6756 28.6323 45.2973 28.7257 44.9189 28.7257ZM51.9588 28.1391C52.2255 28.1391 52.4103 28.0753 52.5135 27.9478C52.6167 27.8117 52.677 27.6289 52.6941 27.3994C52.7113 27.1612 52.7199 26.8892 52.7199 26.5831V23.6753C52.7199 23.5392 52.7199 23.4033 52.7199 23.2672C52.7286 23.1312 52.7457 22.9909 52.7715 22.8463C52.6167 22.8548 52.4619 22.8633 52.3071 22.8718C52.161 22.8718 52.0104 22.8761 51.8556 22.8846V22.3617H52.2555C52.6254 22.3617 52.879 22.3277 53.0167 22.2597C53.1628 22.1831 53.2834 22.1024 53.3779 22.0173H53.752C53.7692 22.1534 53.7821 22.3234 53.7907 22.5275C53.7994 22.723 53.8079 22.9739 53.8165 23.28C53.9456 23.0674 54.122 22.8591 54.3455 22.655C54.569 22.451 54.8186 22.2809 55.0938 22.1449C55.3776 22.0088 55.6743 21.9408 55.984 21.9408C56.2249 21.9408 56.4355 22.0046 56.6161 22.1321C56.7967 22.2597 56.887 22.4637 56.887 22.7443C56.887 22.8123 56.8655 22.8973 56.8225 22.9994C56.7796 23.0929 56.7106 23.1779 56.6161 23.2544C56.5216 23.3224 56.3968 23.3565 56.242 23.3565C56.0527 23.3479 55.9023 23.2758 55.7904 23.1397C55.6785 22.9951 55.6356 22.8293 55.6614 22.6423C55.4463 22.6338 55.2228 22.689 54.9906 22.8081C54.767 22.9271 54.5561 23.0929 54.3584 23.3055C54.1607 23.5095 53.9843 23.7518 53.8294 24.0324L53.8423 27.1698C53.8423 27.3398 53.8381 27.4928 53.8294 27.6289C53.8294 27.7565 53.8165 27.8926 53.7907 28.0371C53.9284 28.0285 54.0617 28.0243 54.1907 28.0243C54.3284 28.0157 54.4658 28.0074 54.6035 27.9988V28.5217H51.9588V28.1391Z" fill="white"/>
<path d="M30.0606 14.0965C29.9631 13.8069 29.7531 13.5674 29.477 13.4308C29.2007 13.2942 28.881 13.2716 28.588 13.368L25.3529 14.4347L19.5669 12.2898L18.1204 13.0048L22.4599 15.8647L19.5669 17.2946L16.6739 15.8647L15.9507 16.5797L18.8437 19.4395L29.3649 15.5394C29.6471 15.4346 29.8772 15.2257 30.0072 14.9567C30.1369 14.6876 30.1561 14.3793 30.0606 14.0965Z" fill="white"/>
<path d="M0 31.6521H57" stroke="white" stroke-width="3"/>
</g>
<defs>
<clipPath id="clip0_108_3">
<rect width="57" height="32" fill="white"/>
</clipPath>
</defs>
</svg>
