<svg width="57" height="32" viewBox="0 0 57 32" fill="none" xmlns="http://www.w3.org/2000/svg">
<g clip-path="url(#clip0_80_11)">
<path d="M3.76702 28.7258C3.16495 28.7258 2.61881 28.5897 2.12856 28.3177C1.63831 28.0371 1.24698 27.6545 0.954549 27.1699C0.670722 26.6767 0.528809 26.1155 0.528809 25.4864C0.528809 24.8146 0.670722 24.211 0.954549 23.6754C1.23838 23.1397 1.62541 22.7189 2.11566 22.4128C2.60591 22.0982 3.15637 21.9409 3.76702 21.9409C4.36908 21.9409 4.91523 22.0854 5.40548 22.3745C5.89572 22.6551 6.28705 23.0377 6.57949 23.5223C6.87192 24.007 7.01813 24.5596 7.01813 25.1803C7.01813 25.8349 6.87192 26.4343 6.57949 26.9786C6.29566 27.5142 5.90862 27.9393 5.41838 28.2539C4.92813 28.5686 4.37767 28.7258 3.76702 28.7258ZM3.87023 28.2157C4.32606 28.2157 4.6873 28.0881 4.95393 27.8331C5.22057 27.578 5.40977 27.2464 5.52159 26.8383C5.64199 26.4302 5.7022 26.0007 5.7022 25.5502C5.7022 25.1676 5.6635 24.7935 5.58609 24.4278C5.51729 24.0538 5.40548 23.7178 5.25066 23.4203C5.09585 23.1142 4.89372 22.8719 4.6443 22.6933C4.40347 22.5148 4.11106 22.4255 3.76702 22.4255C3.31977 22.4255 2.95424 22.5531 2.67041 22.8081C2.38659 23.0632 2.17587 23.3948 2.03825 23.8029C1.90924 24.211 1.84473 24.6488 1.84473 25.1165C1.84473 25.6436 1.91784 26.1454 2.06406 26.6215C2.21027 27.0892 2.4339 27.4718 2.73492 27.7693C3.03594 28.0668 3.41439 28.2157 3.87023 28.2157ZM10.1784 28.5218V28.1391C10.4451 28.1391 10.63 28.0754 10.7332 27.9478C10.8364 27.8117 10.8966 27.629 10.9138 27.3994C10.931 27.1613 10.9396 26.8893 10.9396 26.5832L10.9525 23.6754C10.9525 23.5393 10.9525 23.4034 10.9525 23.2673C10.9611 23.1312 10.9783 22.9909 11.0041 22.8464C10.8493 22.8549 10.6945 22.8634 10.5397 22.8719C10.3934 22.8804 10.2429 22.8889 10.0881 22.8974V22.3618C10.4666 22.3618 10.7504 22.3448 10.9396 22.3107C11.1374 22.2767 11.2836 22.2342 11.3783 22.1832C11.4729 22.1322 11.5503 22.0769 11.6105 22.0174H11.9846C11.9932 22.0769 11.9975 22.1449 11.9975 22.2215C12.0061 22.298 12.0147 22.383 12.0233 22.4765C12.0319 22.5701 12.0362 22.6764 12.0362 22.7954C12.2254 22.6338 12.4318 22.4893 12.6555 22.3618C12.8877 22.2342 13.1285 22.1322 13.3779 22.0557C13.636 21.9791 13.8897 21.9409 14.1391 21.9409C14.8874 21.9409 15.4335 22.1747 15.7776 22.6423C16.1216 23.1015 16.2936 23.8198 16.2936 24.7977V27.1699C16.2936 27.3398 16.2893 27.4929 16.2807 27.629C16.2807 27.7565 16.2678 27.8927 16.242 28.0371C16.3796 28.0285 16.5129 28.0244 16.642 28.0244C16.7796 28.0158 16.9172 28.0074 17.0548 27.9989V28.5218H14.4229V28.1391C14.6896 28.1391 14.8745 28.0754 14.9777 27.9478C15.0809 27.8117 15.1411 27.629 15.1583 27.3994C15.1755 27.1613 15.1841 26.8893 15.1841 26.5832V24.7977C15.1755 24.0666 15.0508 23.5138 14.81 23.1397C14.5778 22.7656 14.2079 22.5828 13.7005 22.5913C13.3908 22.5998 13.0855 22.6806 12.7845 22.8336C12.4921 22.9867 12.2469 23.1822 12.0491 23.4203C12.0577 23.4882 12.062 23.5648 12.062 23.6499C12.062 23.735 12.062 23.8242 12.062 23.9177L12.0491 27.1699C12.0491 27.3398 12.0448 27.4929 12.0362 27.629C12.0362 27.7565 12.0233 27.8927 11.9975 28.0371C12.1351 28.0285 12.2684 28.0244 12.3975 28.0244C12.5351 28.0158 12.6727 28.0074 12.8103 27.9989V28.5218H10.1784ZM27.9578 28.7258C27.76 28.7258 27.5578 28.6961 27.3514 28.6365C27.145 28.5855 26.9515 28.4793 26.7709 28.3177C26.5989 28.1561 26.4612 27.9223 26.358 27.6162C26.2548 27.3016 26.2032 26.8893 26.2032 26.3791L26.229 22.6806L25.2356 22.6933V22.1449C25.4594 22.1364 25.6872 22.0557 25.9194 21.9026C26.1516 21.7411 26.358 21.5243 26.5386 21.2522C26.7279 20.9801 26.8569 20.6825 26.9257 20.3594H27.3643V22.1449H29.5317V22.6423L27.3643 22.6678L27.3385 26.2133C27.3385 26.596 27.3688 26.9234 27.4288 27.1954C27.4978 27.459 27.6052 27.6587 27.7514 27.7948C27.8977 27.9309 28.0868 27.9989 28.319 27.9989C28.5599 27.9989 28.7835 27.9309 28.9899 27.7948C29.205 27.6587 29.3943 27.4718 29.5575 27.2336L29.9059 27.5142C29.7168 27.7948 29.5275 28.0158 29.3382 28.1774C29.1576 28.339 28.9814 28.458 28.8093 28.5345C28.6373 28.6196 28.4783 28.6706 28.3319 28.6875C28.1858 28.7131 28.061 28.7258 27.9578 28.7258ZM35.7853 28.7258C35.1832 28.7258 34.6371 28.5897 34.1469 28.3177C33.6566 28.0371 33.2651 27.6545 32.9728 27.1699C32.689 26.6767 32.5471 26.1155 32.5471 25.4864C32.5471 24.8146 32.689 24.211 32.9728 23.6754C33.2567 23.1397 33.6437 22.7189 34.1339 22.4128C34.6242 22.0982 35.1745 21.9409 35.7853 21.9409C36.3872 21.9409 36.9335 22.0854 37.4238 22.3745C37.914 22.6551 38.3053 23.0377 38.5978 23.5223C38.89 24.007 39.0364 24.5596 39.0364 25.1803C39.0364 25.8349 38.89 26.4343 38.5978 26.9786C38.3139 27.5142 37.9269 27.9393 37.4367 28.2539C36.9464 28.5686 36.3959 28.7258 35.7853 28.7258ZM35.8885 28.2157C36.3443 28.2157 36.7055 28.0881 36.9722 27.8331C37.2387 27.578 37.428 27.2464 37.5399 26.8383C37.6602 26.4302 37.7205 26.0007 37.7205 25.5502C37.7205 25.1676 37.6818 24.7935 37.6044 24.4278C37.5354 24.0538 37.4238 23.7178 37.269 23.4203C37.1141 23.1142 36.9119 22.8719 36.6626 22.6933C36.4217 22.5148 36.1292 22.4255 35.7853 22.4255C35.338 22.4255 34.9725 22.5531 34.6887 22.8081C34.4049 23.0632 34.194 23.3948 34.0565 23.8029C33.9275 24.211 33.863 24.6488 33.863 25.1165C33.863 25.6436 33.936 26.1454 34.0823 26.6215C34.2285 27.0892 34.452 27.4718 34.7532 27.7693C35.0542 28.0668 35.4325 28.2157 35.8885 28.2157ZM44.9189 28.7258C44.4545 28.7258 44.063 28.6407 43.7449 28.4707C43.4353 28.3008 43.1986 28.0116 43.0353 27.6035C42.8805 27.1954 42.8031 26.6428 42.8031 25.9455V23.6754C42.8031 23.5393 42.8031 23.4034 42.8031 23.2673C42.8116 23.1312 42.8289 22.9909 42.8547 22.8464C42.7083 22.8549 42.558 22.8634 42.4032 22.8719C42.2568 22.8719 42.1107 22.8761 41.9645 22.8847V22.3618H42.3645C42.7341 22.3618 43.0009 22.3277 43.1643 22.2597C43.3363 22.1832 43.4695 22.1024 43.5643 22.0174H43.9384V25.9073C43.9384 26.6384 44.0416 27.1868 44.248 27.5525C44.4629 27.9096 44.8242 28.084 45.3318 28.0754C45.6585 28.0668 45.9681 27.9692 46.2606 27.782C46.5616 27.5866 46.8025 27.357 46.9831 27.0933V23.8157C46.9831 23.6116 46.9873 23.4372 46.996 23.2928C47.0045 23.1397 47.0218 22.9909 47.0476 22.8464C46.8928 22.8549 46.738 22.8634 46.5832 22.8719C46.4284 22.8719 46.2735 22.8761 46.1187 22.8847V22.3618H46.5187C46.8883 22.3618 47.1551 22.3277 47.3185 22.2597C47.4905 22.1832 47.6237 22.1024 47.7185 22.0174H48.0926L48.0797 26.8383C48.0797 26.9744 48.0753 27.1657 48.0668 27.4122C48.0581 27.6587 48.0452 27.8671 48.0281 28.0371C48.1829 28.0285 48.3377 28.0202 48.4926 28.0116C48.6474 28.003 48.8022 27.9947 48.957 27.9861V28.5218H47.1121C47.0863 28.3773 47.0647 28.2412 47.0476 28.1136C47.0389 27.9861 47.0303 27.8671 47.0218 27.7565C46.7551 28.0202 46.4326 28.2498 46.0542 28.4452C45.6756 28.6324 45.2973 28.7258 44.9189 28.7258ZM51.9588 28.1391C52.2255 28.1391 52.4103 28.0754 52.5135 27.9478C52.6167 27.8117 52.677 27.629 52.6941 27.3994C52.7113 27.1613 52.7199 26.8893 52.7199 26.5832V23.6754C52.7199 23.5393 52.7199 23.4034 52.7199 23.2673C52.7286 23.1312 52.7457 22.9909 52.7715 22.8464C52.6167 22.8549 52.4619 22.8634 52.3071 22.8719C52.161 22.8719 52.0104 22.8761 51.8556 22.8847V22.3618H52.2555C52.6254 22.3618 52.879 22.3277 53.0167 22.2597C53.1628 22.1832 53.2834 22.1024 53.3779 22.0174H53.752C53.7692 22.1535 53.7821 22.3235 53.7907 22.5276C53.7994 22.7231 53.8079 22.9739 53.8165 23.28C53.9456 23.0674 54.122 22.8591 54.3455 22.6551C54.569 22.451 54.8186 22.281 55.0938 22.1449C55.3776 22.0089 55.6743 21.9409 55.984 21.9409C56.2249 21.9409 56.4355 22.0047 56.6161 22.1322C56.7967 22.2597 56.887 22.4638 56.887 22.7444C56.887 22.8124 56.8655 22.8974 56.8225 22.9994C56.7796 23.093 56.7106 23.178 56.6161 23.2545C56.5216 23.3225 56.3968 23.3565 56.242 23.3565C56.0527 23.348 55.9023 23.2758 55.7904 23.1397C55.6785 22.9952 55.6356 22.8294 55.6614 22.6423C55.4463 22.6338 55.2228 22.6891 54.9906 22.8081C54.767 22.9272 54.5561 23.093 54.3584 23.3055C54.1607 23.5096 53.9843 23.7519 53.8294 24.0325L53.8423 27.1699C53.8423 27.3398 53.8381 27.4929 53.8294 27.629C53.8294 27.7565 53.8165 27.8927 53.7907 28.0371C53.9284 28.0285 54.0617 28.0244 54.1907 28.0244C54.3284 28.0158 54.4658 28.0074 54.6035 27.9989V28.5218H51.9588V28.1391Z" fill="#3D3D3D"/>
<path d="M30.0606 14.0966C29.9631 13.807 29.7531 13.5675 29.477 13.4309C29.2007 13.2942 28.881 13.2716 28.588 13.368L25.3529 14.4348L19.5669 12.2899L18.1204 13.0048L22.4599 15.8647L19.5669 17.2947L16.6739 15.8647L15.9507 16.5797L18.8437 19.4396L29.3649 15.5394C29.6471 15.4347 29.8772 15.2258 30.0072 14.9567C30.1369 14.6877 30.1561 14.3794 30.0606 14.0966Z" fill="#3D3D3D"/>
<path d="M0 31.6522H57" stroke="#3D3D3D" stroke-width="3"/>
</g>
<defs>
<clipPath id="clip0_80_11">
<rect width="57" height="32" fill="white"/>
</clipPath>
</defs>
</svg>
